<?xml version="1.0" standalone="no"?>
<!DOCTYPE svg PUBLIC "-//W3C//DTD SVG 20010904//EN"
 "http://www.w3.org/TR/2001/REC-SVG-20010904/DTD/svg10.dtd">
<svg version="1.0" xmlns="http://www.w3.org/2000/svg"
 width="700.000000pt" height="700.000000pt" viewBox="0 0 700.000000 700.000000"
 preserveAspectRatio="xMidYMid meet">
<metadata>
Created by potrace 1.14, written by Peter Selinger 2001-2017
</metadata>
<g transform="translate(0.000000,700.000000) scale(0.100000,-0.100000)"
fill="#000000" stroke="none">
<path d="M5371 6233 c-16 -16 -780 -1108 -1696 -2428 -917 -1320 -1692 -2434
-1723 -2475 -79 -107 -234 -259 -324 -318 -152 -98 -305 -144 -526 -158 -64
-3 -123 -11 -129 -16 -16 -13 -17 -70 -1 -86 16 -16 131 -15 348 3 221 18 416
18 695 0 405 -27 460 -21 453 48 -4 40 -13 43 -204 56 -119 7 -165 15 -210 33
-133 53 -138 164 -16 371 66 112 755 1102 801 1150 54 57 136 107 225 139 l81
28 690 0 690 0 51 -24 c61 -29 117 -92 134 -152 10 -34 11 -128 6 -407 -12
-595 -26 -712 -102 -858 -43 -81 -127 -165 -206 -203 -103 -50 -311 -86 -505
-86 -68 0 -93 -15 -93 -55 0 -13 10 -31 22 -39 29 -21 180 -21 618 -1 412 19
843 19 1125 0 283 -19 396 -19 420 -1 21 15 25 73 6 86 -7 4 -56 10 -110 14
-164 11 -248 42 -318 119 -74 80 -106 167 -123 337 -8 74 5 615 54 2355 36
1243 68 2328 71 2411 8 185 9 184 -101 184 -67 0 -76 -3 -103 -27z m-572
-1128 c13 -26 10 -165 -21 -1120 -35 -1062 -36 -1091 -57 -1136 -28 -59 -81
-112 -140 -141 l-46 -23 -625 -3 c-439 -2 -640 0 -677 8 -91 20 -128 93 -87
172 30 58 1516 2202 1553 2241 44 47 79 47 100 2z"/>
</g>
</svg>
