<svg xmlns="http://www.w3.org/2000/svg" version="1.1" xmlns:xlink="http://www.w3.org/1999/xlink" xmlns:svgjs="http://svgjs.com/svgjs" width="1000" height="1000"><rect width="1000" height="1000" rx="200" ry="200" fill="#ffffff"></rect><g transform="matrix(3.125,0,0,3.125,100,100)"><svg xmlns="http://www.w3.org/2000/svg" version="1.1" xmlns:xlink="http://www.w3.org/1999/xlink" xmlns:svgjs="http://svgjs.com/svgjs" width="256" height="256"><svg width="256" height="256" viewBox="0 0 256 256" fill="none" xmlns="http://www.w3.org/2000/svg">
<rect width="256" height="256" fill="white"></rect>
<path d="M35 226.786C35 225.309 35.738 224.817 37.4601 224.817C50.0066 224.817 61.3231 222.111 73.3777 204.642L195.645 28.7223C196.137 27.7381 197.613 27 198.843 27H202.041C203.271 27 204.255 27.9842 204.009 28.9683L199.089 199.721C198.351 220.881 205.239 224.817 217.54 224.817C219.262 224.817 220 225.309 220 226.786C220 228.262 219.262 229 217.294 229C209.422 229 197.613 227.77 191.217 227.77H181.13C171.782 227.77 154.807 229 142.999 229C140.293 229 139.309 228.508 139.309 226.786C139.309 225.309 140.293 224.817 142.753 224.817C160.711 224.817 171.29 220.881 172.028 199.721L172.766 171.426C173.012 166.013 168.83 161.585 163.418 161.585H117.414C112.001 161.585 105.113 165.275 102.161 169.704L77.8058 204.642C65.7513 221.865 71.1636 224.817 87.1543 224.817C89.6144 224.817 90.3524 225.309 90.3524 226.786C90.3524 228.262 89.6144 229 86.9082 229C78.5439 229 69.1955 227.77 59.3551 227.77C52.4668 227.77 44.1024 229 37.4601 229C35.738 229 35 228.508 35 226.786ZM115.937 149.775C112.739 154.203 114.707 157.894 120.12 157.894H163.418C168.83 157.894 173.504 153.465 173.504 148.052L175.964 72.5177C175.964 67.1047 173.75 66.3666 170.552 70.7954L115.937 149.775Z" fill="#666135"></path>
</svg></svg></g></svg>